<?xml version="1.0" encoding="utf-8"?>
<!-- Generator: Adobe Illustrator 27.0.1, SVG Export Plug-In . SVG Version: 6.00 Build 0)  -->
<svg version="1.1" id="Layer_1" xmlns="http://www.w3.org/2000/svg" xmlns:xlink="http://www.w3.org/1999/xlink" x="0px" y="0px"
	 viewBox="0 0 176 40" style="enable-background:new 0 0 176 40;" xml:space="preserve">
<style type="text/css">
	.st0{fill-rule:evenodd;clip-rule:evenodd;fill:#F6B7B0;fill-opacity:0.5;}
	.st1{fill-rule:evenodd;clip-rule:evenodd;fill:url(#SVGID_1_);}
	.st2{fill:#373981;}
</style>
<circle class="st0" cx="20" cy="20" r="20"/>
<linearGradient id="SVGID_1_" gradientUnits="userSpaceOnUse" x1="9.243471e-03" y1="20" x2="40" y2="20">
	<stop  offset="0" style="stop-color:#E97A99"/>
	<stop  offset="1" style="stop-color:#FAC9B6"/>
</linearGradient>
<path class="st1" d="M36.8,30.9C36.8,30.9,36.8,30.9,36.8,30.9c0,0,0-0.1,0.1-0.1c0.3-0.5,0.6-1,0.9-1.6c0.2-0.4,0.3-0.7,0.5-1.1
	c0.1-0.2,0.2-0.4,0.3-0.6c0.2-0.5,0.3-1,0.5-1.4c0-0.1,0.1-0.2,0.1-0.4c0.1-0.5,0.3-1,0.4-1.5c0-0.1,0.1-0.2,0.1-0.4
	c0.1-0.5,0.2-1,0.2-1.4c0-0.2,0-0.3,0.1-0.5c0-0.4,0-0.8,0.1-1.3c0-0.2,0-0.5,0-0.7c0-0.3,0-0.7,0-1c0-0.3,0-0.6-0.1-0.9
	c0-0.3-0.1-0.5-0.1-0.8c-0.1-0.4-0.1-0.7-0.2-1.1c0-0.2-0.1-0.5-0.2-0.7c-0.1-0.4-0.2-0.8-0.3-1.2c-0.1-0.3-0.2-0.5-0.3-0.8
	c-0.1-0.3-0.2-0.7-0.4-1c-0.2-0.4-0.4-0.8-0.6-1.2c-0.1-0.2-0.2-0.3-0.2-0.5c-0.4-0.7-0.8-1.4-1.3-2.1c-0.2-0.3-0.5-0.7-0.8-1
	c-0.1-0.2-0.3-0.3-0.4-0.5c-0.3-0.3-0.6-0.6-0.9-0.9c-0.1-0.1-0.2-0.2-0.3-0.3C33,4.8,32,4,31,3.3c0,0-0.1,0-0.1-0.1
	c0,0-0.1-0.1-0.1-0.1c-0.3-0.2-0.6-0.4-1-0.6c-0.1-0.1-0.2-0.1-0.3-0.2c-0.3-0.2-0.6-0.3-0.9-0.4c-0.2-0.1-0.3-0.2-0.5-0.2
	c-0.1,0-0.2-0.1-0.3-0.1l0,0c-2.5-1-5-1.6-7.6-1.6L20,10.2c1.1,0.3,4.5,0.8,5.5,1.5c0.2,0.2,0.5,0.3,0.7,0.5c0.1,0,0.1,0.1,0.2,0.1
	c0.2,0.2,0.4,0.3,0.5,0.5c0.1,0.1,0.1,0.1,0.2,0.2c0.1,0.1,0.3,0.3,0.4,0.4c0.1,0.1,0.2,0.2,0.2,0.3c0.1,0.1,0.1,0.2,0.2,0.3
	c0.1,0.2,0.2,0.3,0.3,0.5c0.2,0.3,0.4,0.6,0.5,0.9c0,0.1,0.1,0.1,0.1,0.2c0.1,0.2,0.2,0.4,0.3,0.7c0.1,0.2,0.1,0.3,0.2,0.5
	c0.1,0.1,0.1,0.3,0.2,0.4c0.1,0.2,0.1,0.4,0.1,0.5c0,0.1,0.1,0.3,0.1,0.4c0,0.2,0.1,0.3,0.1,0.5c0,0.2,0.1,0.3,0.1,0.5
	c0,0.1,0,0.3,0,0.4c0,0.2,0,0.4,0,0.6c0,0.1,0,0.2,0,0.3c0,0.2,0,0.5,0,0.7c0,0.1,0,0.1,0,0.2c0,0.3-0.1,0.5-0.1,0.8c0,0,0,0,0,0.1
	c-0.1,0.3-0.1,0.6-0.2,0.9c0,0,0,0,0,0c-0.1,0.3-0.2,0.6-0.3,0.9c0,0,0,0,0,0.1c-0.1,0.3-0.2,0.5-0.4,0.8c0,0.1-0.1,0.1-0.1,0.2
	c-0.7,1.3-1.8,2.5-3.2,3.5c-0.6,0.4-1.2,0.7-1.8,1c0,0-0.1,0-0.1,0.1c-0.3,0.1-0.5,0.2-0.8,0.3c-0.1,0-0.2,0.1-0.3,0.1
	c-0.2,0.1-0.4,0.1-0.6,0.2c-0.1,0-0.2,0-0.3,0.1c-0.2,0-0.4,0.1-0.6,0.1c-0.1,0-0.2,0-0.3,0c-0.2,0-0.5,0-0.7,0c-0.1,0-0.1,0-0.2,0
	c-0.3,0-0.5,0-0.8,0c0,0-0.1,0-0.1,0c-0.3,0-0.6-0.1-0.8-0.1c0,0,0,0-0.1,0c-0.3-0.1-0.6-0.1-0.9-0.2c0,0-0.1,0-0.1,0
	c-0.3-0.1-0.5-0.2-0.8-0.3c-0.1,0-0.2-0.1-0.2-0.1c-0.2-0.1-0.4-0.2-0.6-0.3c-0.3-0.1-0.5-0.3-0.8-0.5c0,0,0,0-0.1,0
	c-0.1-0.1-0.2-0.1-0.3-0.2c-0.2-0.1-0.3-0.2-0.5-0.4c-0.1-0.1-0.2-0.1-0.2-0.2c-0.2-0.1-0.3-0.3-0.5-0.4c-0.1-0.1-0.1-0.1-0.2-0.2
	c-0.2-0.2-0.3-0.3-0.5-0.5c-0.1-0.1-0.1-0.1-0.2-0.2c-0.2-0.2-0.4-0.4-0.5-0.7c-0.6-1-1.3-4.4-1.6-5.5L0,20.5
	c0.1,2.6,0.6,5.1,1.7,7.6l0,0c0,0.1,0.1,0.2,0.1,0.2C1.9,28.6,2,28.8,2.1,29c0.1,0.2,0.3,0.5,0.4,0.7c0.1,0.1,0.2,0.3,0.3,0.4
	C3,30.5,3.1,30.7,3.3,31c0,0.1,0.1,0.1,0.1,0.2c0,0,0.1,0.1,0.1,0.1c0.7,1,1.5,2,2.4,2.9c0.1,0.1,0.2,0.2,0.3,0.3
	c0.3,0.3,0.6,0.6,1,0.9c0.2,0.1,0.3,0.3,0.5,0.4C8,36,8.4,36.3,8.8,36.6c0.7,0.4,1.3,0.9,2,1.2c0.3,0.2,0.6,0.3,0.9,0.4
	c0.3,0.1,0.6,0.3,0.8,0.4c0.5,0.2,0.9,0.3,1.4,0.5c0.1,0,0.3,0.1,0.4,0.1c0.5,0.1,1,0.3,1.5,0.4c0.1,0,0.2,0.1,0.4,0.1
	c0.5,0.1,1,0.2,1.5,0.2c0.2,0,0.3,0,0.5,0.1c0.4,0,0.9,0.1,1.3,0.1c0.2,0,0.4,0,0.6,0c0.4,0,0.8,0,1.1-0.1c0.3,0,0.6,0,0.8-0.1
	c0.3,0,0.7-0.1,1-0.1c0.3,0,0.6-0.1,1-0.2c0.3-0.1,0.6-0.2,0.9-0.2c0.3-0.1,0.6-0.2,0.9-0.2c0.4-0.1,0.7-0.3,1.1-0.4
	c0.2-0.1,0.5-0.2,0.7-0.3c2.4-1,4.7-2.5,6.6-4.5c0,0,0,0,0,0c0.4-0.5,0.9-0.9,1.3-1.4C36,32,36.4,31.5,36.8,30.9z"/>
<g>
	<path class="st2" d="M65.6,14.6v9.4c0,2.6-0.5,4.6-1.4,6c-0.9,1.4-2.4,2.1-4.4,2.1c-1.3,0-2.3-0.3-2.9-0.8
		c-0.6-0.5-0.9-1.1-0.9-1.8c0-0.7,0.2-1.2,0.6-1.6c0.4-0.4,0.9-0.6,1.6-0.6s1.1,0.2,1.4,0.5c0.3,0.3,0.5,0.7,0.5,1.1s0,0.8-0.1,1.2
		H59c-0.3,0.4-0.3,0.8-0.1,1.1c0.2,0.3,0.5,0.5,1,0.5c0.5,0,0.8-0.3,1-0.8c0.2-0.6,0.3-1.7,0.3-3.4V15h-1.6v-0.4H65.6z M63.3,12.9
		c-0.8,0-1.5-0.2-1.8-0.6c-0.4-0.4-0.5-1-0.5-1.6s0.2-1.2,0.6-1.6c0.4-0.4,1-0.6,1.8-0.6c0.8,0,1.4,0.2,1.8,0.6
		c0.4,0.4,0.6,0.9,0.6,1.6c0,0.7-0.2,1.3-0.6,1.7C64.8,12.7,64.2,12.9,63.3,12.9z"/>
	<path class="st2" d="M69,24.7c-1-1-1.5-2.5-1.5-4.4s0.5-3.4,1.6-4.4c1.1-1,2.6-1.5,4.6-1.5c2,0,3.5,0.5,4.4,1.4
		c1,1,1.5,2.4,1.5,4.4c0,4.1-2,6.1-6.1,6.1C71.6,26.2,70.1,25.7,69,24.7z M75.1,21.3v-2c0-1.6-0.1-2.7-0.3-3.4
		c-0.2-0.7-0.6-1.1-1.2-1.1c-0.4,0-0.6,0.1-0.9,0.3c-0.2,0.2-0.4,0.5-0.5,1c-0.1,0.7-0.2,1.8-0.2,3.3v1.9c0,1.7,0.1,2.8,0.2,3.1
		c0.1,0.4,0.2,0.6,0.3,0.9c0.2,0.4,0.5,0.6,1,0.6c0.6,0,1-0.4,1.2-1.1C75,24.2,75.1,23.1,75.1,21.3z"/>
	<path class="st2" d="M80.2,8h5.9v17.6h1.3V26h-7.1v-0.4h1.3V8.4h-1.4V8z"/>
	<path class="st2" d="M87.8,8h5.9v17.6H95V26h-7.1v-0.4h1.3V8.4h-1.4V8z"/>
	<path class="st2" d="M95,15v-0.4h7V15h-1.3l2.6,8l2.8-8h-1.6v-0.4h3.4V15h-1.2l-4.5,12.9c-0.5,1.5-1.1,2.6-1.8,3.2S98.9,32,98,32
		s-1.7-0.2-2.2-0.6c-0.5-0.4-0.8-1-0.8-1.7s0.2-1.2,0.5-1.5s0.8-0.5,1.4-0.5c1.3,0,2,0.6,2,1.7c0,0.2,0,0.5-0.1,0.9h-0.8
		c-0.1,0.4-0.1,0.7,0,0.9s0.3,0.4,0.6,0.4c0.7,0,1.2-0.3,1.8-1c0.5-0.6,1-1.6,1.5-3l0.5-1.5h-2.1L96,15H95z"/>
</g>
</svg>
