<svg xmlns="http://www.w3.org/2000/svg" width="60" height="60" viewBox="0 0 60 60">
  <defs>
    <linearGradient id="logo-sm-a" x1="50%" x2="50%" y1="6.362%" y2="98.546%">
      <stop offset="0%" stop-color="#E97A99"/>
      <stop offset="100%" stop-color="#FAC9B6"/>
    </linearGradient>
  </defs>
  <g fill="none" fill-rule="evenodd">
    <circle cx="30" cy="30" r="30" fill="#F6B7B0" fill-opacity=".5"/>
    <path fill="url(#logo-sm-a)" d="M29.7655073,0 C35.7877452,0 41.3922668,1.80254569 46.0769184,4.90152746 L35.0176988,15.9607697 C33.3844549,15.3397824 31.6143512,15 29.7655073,15 C21.5459894,15 14.8827536,21.7157288 14.8827536,30 C14.8827536,38.2842712 21.5459894,45 29.7655073,45 C31.4519359,45 33.0728509,44.7172931 34.5841434,44.1963358 L45.7193059,55.3313729 C41.1081818,58.2875809 35.6352599,60 29.7655073,60 C13.3264715,60 0,46.5685425 0,30 C0,13.4314575 13.3264715,0 29.7655073,0 Z"/>
  </g>
</svg>
