<?xml version="1.0" encoding="UTF-8"?><!DOCTYPE svg PUBLIC "-//W3C//DTD SVG 1.1//EN" "http://www.w3.org/Graphics/SVG/1.1/DTD/svg11.dtd"><svg xmlns="http://www.w3.org/2000/svg"><symbol id="icon-arrow-next" viewBox="0 0 14 24">
    <path d="M.586 22L2 23.414 13.414 12 2 .586.586 2l9.999 10z"/>
</symbol><symbol id="icon-arrow-prev" viewBox="0 0 14 24">
    <path d="M13.414 2L12 .586.586 12 12 23.414 13.414 22 3.415 12z"/>
</symbol><symbol id="icon-arrow-right" viewBox="0 0 30 22">
    <path d="M18.571.293L29.28 11 18.57 21.707 17.864 21l9.5-9.5H0v-1h27.364l-9.5-9.5.707-.707z"/>
</symbol><symbol id="icon-dribbble" viewBox="0 0 16 16">
    <path fill-rule="evenodd" d="M8 0C3.6 0 0 3.6 0 8s3.6 8 8 8 8-3.6 8-8-3.6-8-8-8zm2.2 7.4s-.2-.6-.3-.8c1.7-.8 2.8-1.7 3.2-2.2.7.9 1.1 2 1.2 3.2-.8-.2-2.6-.5-4.1-.2zM9.1 5.1C8.3 3.7 7.4 2.5 7 1.8c1.9-.5 3.6.1 4.9 1.3-.4.5-1.2 1.3-2.8 2zm-4-2.6c.4.5 1.2 1.7 2 3.2-2.2.5-4.2.6-5.1.6.4-1.6 1.6-3 3.1-3.8zM8 7.3c.1.2.2.4.3.5-2.8.9-4.6 3.2-5.2 4.1-.8-1.1-1.3-2.4-1.3-3.7.9-.1 3.5-.2 6.2-.9zm1 2.2c.7 2 1.1 3.6 1.2 4.4-2.1.7-4.5.3-5.8-.8.4-.7 1.7-2.5 4.6-3.6zm2.9 3.4c-.2-.8-.5-2.2-1.1-3.9 1.1-.2 2.7 0 3.3.2-.3 1.5-1.1 2.8-2.2 3.7z"/>
</symbol><symbol id="icon-facebook" viewBox="0 0 10 16">
    <path d="M2.932 16l-.023-7.273H0V5.818h2.91V4c0-2.7 1.67-4 4.078-4 1.154 0 2.145.086 2.434.124v2.821h-1.67c-1.31 0-1.563.623-1.563 1.536v1.337H10l-1.455 2.91H6.19V16H2.932z"/>
</symbol><symbol id="icon-instagram" viewBox="0 0 16 16">
    <g>
        <circle cx="12.145" cy="3.892" r="1"/>
        <path d="M8 12c-2.206 0-4-1.794-4-4s1.794-4 4-4 4 1.794 4 4-1.794 4-4 4zm0-6c-1.103 0-2 .897-2 2s.897 2 2 2 2-.897 2-2-.897-2-2-2z"/>
        <path d="M12 16H4c-2.056 0-4-1.944-4-4V4c0-2.056 1.944-4 4-4h8c2.056 0 4 1.944 4 4v8c0 2.056-1.944 4-4 4zM4 2c-.935 0-2 1.065-2 2v8c0 .953 1.047 2 2 2h8c.935 0 2-1.065 2-2V4c0-.935-1.065-2-2-2H4z"/>
    </g>
</symbol><symbol id="icon-play" viewBox="0 0 12 16">
    <path fill-rule="evenodd" d="M0 0l12 8-12 8z"/>
</symbol><symbol id="icon-twitter" viewBox="0 0 16 13.3">
    <style>
        .st0{fill:#fff}
    </style>
    <path class="st0" d="M16 1.7c-.6.3-1.2.5-1.9.5.7-.4 1.2-1.1 1.5-1.8-.7.4-1.3.7-2.1.8C12.9.5 12 .1 11.1.1 9.3.1 7.8 1.6 7.8 3.4c0 .3 0 .5.1.7-2.8 0-5.2-1.4-6.8-3.4-.3.6-.4 1.1-.4 1.7 0 1.1.6 2.1 1.5 2.7-.6 0-1.1-.1-1.5-.4v.1C.7 6.4 1.8 7.7 3.3 8c-.3.1-.6.1-.9.1-.2 0-.4 0-.6-.1.4 1.3 1.6 2.3 3.1 2.3-1.1.9-2.5 1.4-4.1 1.4-.3 0-.5 0-.8-.1 1.5.9 3.2 1.5 5 1.5 6.1 0 9.3-5 9.3-9.3v-.4c.7-.5 1.2-1.1 1.7-1.7z"/>
</symbol></svg>